<svg id="Layer_1" enable-background="new 0 0 512 512" height="512" viewBox="0 0 512 512" width="512" xmlns="http://www.w3.org/2000/svg"><path d="m150.59 68.671 27.276 21.923-9.18 33.768c-1.192 4.383.412 8.941 4.087 11.611 1.912 1.389 4.137 2.087 6.366 2.087 2.056 0 4.117-.594 5.939-1.788l29.279-19.166 29.279 19.166c3.8 2.488 8.631 2.37 12.306-.3s5.279-7.228 4.088-11.611l-9.181-33.768 27.276-21.923c3.541-2.846 4.921-7.476 3.518-11.796s-5.242-7.255-9.779-7.476l-34.953-1.704-12.422-32.714c-1.609-4.24-5.585-6.979-10.13-6.979 0 0 0 0-.001 0-4.545 0-8.522 2.74-10.132 6.98l-12.421 32.715-34.953 1.704c-4.537.221-8.375 3.155-9.779 7.476-1.404 4.319-.024 8.949 3.517 11.795zm45.365-5.159c4.306-.208 8.077-2.947 9.608-6.979l8.794-23.163 8.793 23.161c1.53 4.032 5.301 6.772 9.605 6.98l24.748 1.206-19.31 15.523c-3.359 2.699-4.8 7.13-3.67 11.292l6.5 23.909-20.729-13.569c-1.804-1.181-3.87-1.771-5.937-1.771-2.066 0-4.133.59-5.935 1.771l-20.73 13.57 6.5-23.908c1.131-4.16-.309-8.592-3.668-11.291l-19.312-15.522zm-113.627 104.375 29.278 19.166c3.801 2.488 8.631 2.372 12.306-.299 3.675-2.67 5.28-7.227 4.088-11.611l-9.181-33.769 27.276-21.923c3.54-2.846 4.92-7.476 3.517-11.796-1.404-4.32-5.243-7.254-9.779-7.475l-34.953-1.704-12.42-32.716c-1.609-4.239-5.585-6.979-10.13-6.979 0 0 0 0-.001 0-4.545 0-8.522 2.74-10.132 6.98l-12.422 32.716-34.953 1.704c-4.537.221-8.375 3.155-9.779 7.476s-.023 8.951 3.518 11.796l27.275 21.923-9.18 33.768c-1.192 4.383.412 8.94 4.087 11.611 1.912 1.389 4.136 2.087 6.366 2.087 2.056 0 4.117-.594 5.939-1.788zm-43.146-52.388 24.748-1.207c4.306-.209 8.076-2.95 9.604-6.978l8.794-23.163 8.795 23.164c1.53 4.029 5.3 6.768 9.604 6.977l24.748 1.207-19.311 15.521c-3.36 2.7-4.8 7.132-3.669 11.291l6.5 23.908-20.731-13.571c-1.802-1.179-3.868-1.769-5.934-1.769s-4.133.59-5.936 1.77l-20.73 13.57 6.5-23.908c1.131-4.161-.31-8.594-3.668-11.291zm239.92-7.844c-1.404 4.32-.023 8.951 3.517 11.797l27.276 21.923-9.18 33.768c-1.192 4.383.412 8.94 4.087 11.611 1.912 1.389 4.136 2.087 6.366 2.087 2.056 0 4.117-.594 5.94-1.788l29.278-19.167 29.278 19.166c3.8 2.488 8.63 2.371 12.305-.298s5.281-7.227 4.09-11.612l-9.181-33.768 27.276-21.923c3.541-2.846 4.92-7.476 3.517-11.796-1.404-4.32-5.242-7.254-9.778-7.475l-34.953-1.704-12.421-32.714c-1.609-4.241-5.586-6.981-10.132-6.981s-8.523 2.74-10.132 6.979l-12.422 32.716-34.952 1.704c-4.536.221-8.375 3.155-9.779 7.475zm48.886 6.638c4.306-.209 8.076-2.949 9.604-6.978l8.794-23.164 8.794 23.161c1.529 4.031 5.299 6.771 9.605 6.98l24.747 1.207-19.312 15.522c-3.359 2.7-4.799 7.132-3.668 11.29l6.5 23.908-20.731-13.571c-1.802-1.179-3.868-1.769-5.934-1.769s-4.133.59-5.937 1.77l-20.729 13.57 6.5-23.908c1.131-4.16-.31-8.592-3.668-11.291l-19.312-15.522zm74.337 199.361c-29.944 0-56.697 13.905-74.156 35.592-20.279-19.767-45.301-33.821-72.377-40.963 26.755-14.692 44.934-43.138 44.934-75.756 0-47.623-38.745-86.367-86.368-86.367s-86.368 38.744-86.368 86.367c0 32.594 18.153 61.021 44.876 75.722-25.017 6.572-48.273 19.058-67.794 36.712-29.778 26.929-48.52 63.652-52.773 103.402-.242 2.258.487 4.511 2.004 6.199s3.68 2.652 5.95 2.652l260.148-.001c16.591 27.983 47.1 46.786 81.923 46.786 52.479 0 95.173-42.694 95.173-95.173s-42.693-95.172-95.172-95.172zm-258.334-81.127c0-38.801 31.567-70.367 70.368-70.367s70.368 31.566 70.368 70.367c0 38.797-31.56 70.361-70.355 70.367-.004 0-.009 0-.013 0s-.009 0-.013 0c-38.795-.007-70.355-31.571-70.355-70.367zm-74.567 208.688c11.814-70.33 72.612-122.314 144.922-122.32h.013.012c39.335.003 77.156 15.927 104.698 43.867-7.587 13.658-11.917 29.365-11.917 46.066 0 11.366 2.006 22.273 5.677 32.387zm332.901 46.785c-43.656 0-79.173-35.517-79.173-79.173s35.517-79.173 79.173-79.173 79.173 35.517 79.173 79.173-35.517 79.173-79.173 79.173zm54.836-120.023c-3.967-3.944-9.254-6.096-14.828-6.084-5.587.021-10.827 2.218-14.754 6.184l-36.73 37.098-13.794-13.794c-8.161-8.159-21.438-8.16-29.6.001-8.159 8.16-8.159 21.438 0 29.6l28.649 28.648c4.08 4.08 9.439 6.119 14.799 6.119 5.359 0 10.719-2.04 14.799-6.12 10.874-10.873 21.841-21.997 32.446-32.755 6.364-6.455 12.729-12.91 19.109-19.35 8.107-8.18 8.063-21.435-.096-29.547zm-11.269 18.285c-6.39 6.449-12.763 12.914-19.137 19.379-10.586 10.737-21.533 21.841-32.366 32.674-1.921 1.922-5.05 1.922-6.972 0l-28.648-28.647c-1.922-1.923-1.922-5.051 0-6.973.961-.961 2.224-1.441 3.486-1.441s2.525.48 3.486 1.441l19.478 19.479c1.5 1.5 3.535 2.343 5.657 2.343h.02c2.128-.005 4.167-.858 5.665-2.371l42.387-42.811c.916-.925 2.14-1.437 3.446-1.442 1.324-.049 2.552.501 3.484 1.429 1.915 1.903 1.921 5.017.014 6.94z"/></svg>