<svg id="Layer_1" enable-background="new 0 0 512 512" height="512" viewBox="0 0 512 512" width="512" xmlns="http://www.w3.org/2000/svg"><path d="m83.885 159.133v-.299h.483c7.874 0 14.279-6.406 14.279-14.279v-15.712c0-5.284-2.891-9.895-7.168-12.365 1.916-14.812 6.24-21.514 10.439-28.013 4.5-6.963 9.152-14.163 9.152-28.429.001-28.141-22.893-51.036-51.034-51.036s-51.036 22.895-51.036 51.036c0 14.265 4.653 21.465 9.152 28.429 4.199 6.498 8.524 13.201 10.44 28.013-4.277 2.47-7.168 7.081-7.168 12.365v15.712c0 7.874 6.406 14.279 14.28 14.279h.482v.299c0 7.646 6.222 13.868 13.868 13.868h19.963c7.647-.001 13.868-6.222 13.868-13.868zm-23.849-136.133c20.421 0 37.035 16.614 37.035 37.036 0 10.136-2.898 14.622-6.91 20.831-4.594 7.109-10.194 15.785-12.546 33.696h-10.579v-42.29l15.383-8.882c3.348-1.933 4.495-6.214 2.562-9.562-1.934-3.349-6.213-4.497-9.562-2.562l-15.383 8.881-15.384-8.881c-3.348-1.934-7.629-.785-9.562 2.562-1.933 3.348-.785 7.629 2.562 9.562l15.384 8.882v42.29h-10.579c-2.352-17.91-7.953-26.587-12.546-33.696-4.013-6.21-6.911-10.695-6.911-20.831 0-20.421 16.614-37.036 37.036-37.036zm9.849 136h-19.698v-7.167c0-3.866-3.134-7-7-7h-7.482c-.139 0-.28-.141-.28-.279v-15.712c0-.139.142-.28.28-.28h48.664c.139 0 .279.141.279.28v15.712c0 .139-.141.279-.279.279h-7.483c-3.866 0-7 3.134-7 7v7.167zm421.188-87.426c-5.938 0-8.279-4.539-8.855-5.93s-2.131-6.257 2.069-10.457c4.649-4.65 4.649-12.216-.001-16.868l-10.605-10.604c-2.252-2.253-5.248-3.495-8.435-3.495-3.186 0-6.181 1.241-8.433 3.493-4.199 4.198-9.065 2.645-10.456 2.068-1.392-.576-5.931-2.918-5.931-8.856.001-6.575-5.35-11.925-11.926-11.925h-15c-6.576 0-11.926 5.35-11.926 11.926 0 5.938-4.539 8.28-5.931 8.856-1.391.576-6.256 2.131-10.455-2.068-4.651-4.65-12.219-4.649-16.868 0l-10.605 10.606c-2.253 2.253-3.494 5.248-3.494 8.434 0 3.187 1.241 6.182 3.493 8.434 4.199 4.199 2.645 9.065 2.068 10.457s-2.918 5.93-8.855 5.93c-6.576 0-11.927 5.35-11.927 11.926v15c0 6.576 5.351 11.926 11.927 11.926 5.938 0 8.279 4.539 8.855 5.93s2.131 6.257-2.066 10.455c-2.254 2.252-3.495 5.248-3.495 8.435s1.241 6.183 3.493 8.433l10.607 10.608c4.651 4.65 12.216 4.649 16.867 0 4.206-4.208 9.071-2.657 10.46-2.081 1.391.576 5.926 2.917 5.926 8.868 0 6.576 5.35 11.926 11.926 11.926h15c6.576 0 11.927-5.35 11.927-11.926 0-5.938 4.539-8.28 5.93-8.856 1.393-.576 6.258-2.13 10.457 2.069 2.253 2.252 5.247 3.492 8.433 3.492 3.187 0 6.182-1.241 8.434-3.493l10.606-10.607c2.253-2.252 3.494-5.248 3.494-8.434s-1.241-6.181-3.493-8.433c-4.2-4.199-2.646-9.065-2.069-10.457s2.918-5.93 8.855-5.93c6.576 0 11.927-5.35 11.927-11.926v-15c-.001-6.575-5.352-11.926-11.928-11.926zm-2.073 24.938c-8.82.734-16.261 6.144-19.717 14.486-3.455 8.343-2.02 17.429 3.698 24.187l-7.796 7.796c-6.756-5.717-15.842-7.154-24.187-3.698-8.342 3.456-13.752 10.896-14.486 19.717h-11.024c-.733-8.829-6.142-16.274-14.482-19.729s-17.429-2.014-24.191 3.71l-7.795-7.796c5.717-6.757 7.153-15.844 3.697-24.187-3.456-8.342-10.896-13.752-19.717-14.486v-11.023c8.82-.734 16.261-6.144 19.717-14.486 3.456-8.343 2.021-17.429-3.698-24.188l7.797-7.796c6.755 5.717 15.841 7.154 24.186 3.698 8.343-3.456 13.753-10.896 14.487-19.717h11.024c.734 8.82 6.145 16.261 14.486 19.717 8.344 3.456 17.43 2.02 24.187-3.698l7.796 7.795c-5.718 6.757-7.153 15.844-3.698 24.188 3.456 8.342 10.896 13.752 19.717 14.486v11.024zm-68-49.163c-24.069 0-43.651 19.582-43.651 43.651s19.582 43.651 43.651 43.651 43.651-19.581 43.651-43.651-19.582-43.651-43.651-43.651zm0 73.303c-16.35 0-29.651-13.302-29.651-29.651s13.301-29.652 29.651-29.652 29.651 13.302 29.651 29.651-13.301 29.652-29.651 29.652zm-202.081 77.927c-28.36 0-51.433 23.07-51.433 51.427 0 28.36 23.072 51.433 51.433 51.433s51.434-23.073 51.434-51.433c0-28.357-23.074-51.427-51.434-51.427zm0 88.86c-20.641 0-37.433-16.792-37.433-37.433 0-20.637 16.792-37.427 37.433-37.427s37.434 16.79 37.434 37.427c0 20.641-16.793 37.433-37.434 37.433zm155.261 154.464c9.75-10.201 15.757-24.008 15.757-39.2 0-31.315-25.477-56.792-56.792-56.792-11.458 0-22.127 3.422-31.06 9.282-19.416-26.522-49.971-42.148-83.166-42.148-56.872 0-103.141 46.266-103.141 103.134 0 8.435 3.77 20.591 21.726 30.599 19.487 10.861 50.364 16.236 81.233 16.236 24.093 0 48.174-3.279 66.829-9.778l-14.561 25.221c-1.375 2.383-1.228 5.351.379 7.585 1.605 2.234 4.374 3.32 7.068 2.776l12.301-2.483 4.001 11.895c.877 2.608 3.201 4.46 5.938 4.734.234.023.467.035.698.035 2.481 0 4.802-1.32 6.061-3.5l23.135-40.069c.849.038 1.701.065 2.559.065s1.71-.027 2.559-.065l23.134 40.069c1.259 2.18 3.578 3.5 6.061 3.5.231 0 .464-.012.698-.035 2.737-.273 5.062-2.126 5.938-4.734l4.001-11.895 12.302 2.483c2.695.543 5.464-.542 7.068-2.776 1.606-2.234 1.754-5.203.379-7.585zm-229.86-7.353c-9.649-5.378-14.542-11.559-14.542-18.37 0-49.148 39.988-89.134 89.141-89.134 29.019 0 55.709 13.815 72.461 37.224-9.322 10.121-15.027 23.622-15.027 38.434 0 12.98 4.387 24.949 11.742 34.524-16.178 7.232-40.469 11.551-67.22 11.759-31.291.258-59.897-5.153-76.555-14.437zm158.76 44.521-1.025-3.049c-1.126-3.345-4.575-5.331-8.02-4.63l-3.152.636 12.218-21.162c3.975 2.489 8.274 4.502 12.825 5.954zm-12.727-76.368c0-23.595 19.196-42.792 42.792-42.792s42.792 19.196 42.792 42.792-19.196 42.792-42.792 42.792-42.792-19.196-42.792-42.792zm81.9 68.689c-3.455-.703-6.895 1.287-8.02 4.63l-1.025 3.049-12.846-22.251c4.551-1.451 8.851-3.465 12.826-5.954l12.218 21.162zm-39.108-103.042c-18.942 0-34.354 15.411-34.354 34.353s15.411 34.354 34.354 34.354 34.354-15.411 34.354-34.354-15.412-34.353-34.354-34.353zm0 54.707c-11.223 0-20.354-9.13-20.354-20.354 0-11.223 9.131-20.353 20.354-20.353s20.354 9.13 20.354 20.353c-.001 11.224-9.132 20.354-20.354 20.354zm-181.178-332.057c0-3.866 3.134-7 7-7h115.238l-20.619-20.619c-2.733-2.733-2.733-7.166 0-9.899 2.734-2.733 7.166-2.733 9.9 0l32.568 32.568c2.733 2.733 2.733 7.166 0 9.899l-32.568 32.569c-1.367 1.367-3.159 2.05-4.95 2.05s-3.583-.684-4.949-2.05c-2.734-2.733-2.734-7.166-.001-9.899l20.619-20.619h-115.238c-3.866 0-7-3.134-7-7zm-17.847 227.301-44.489-11.921c-3.734-1.001-5.95-4.839-4.95-8.573 1-3.736 4.846-5.952 8.573-4.95l28.166 7.547-57.62-99.8c-1.933-3.348-.785-7.629 2.562-9.562 3.349-1.934 7.629-.786 9.562 2.562l57.619 99.799 7.547-28.165c1.001-3.736 4.846-5.953 8.573-4.95 3.734 1 5.95 4.839 4.95 8.573l-11.921 44.489c-.838 3.127-3.667 5.19-6.758 5.19-.598.001-1.207-.076-1.814-.239zm165.454-53.062 7.547 28.165 57.619-99.799c1.934-3.348 6.215-4.495 9.562-2.562 3.348 1.933 4.495 6.214 2.562 9.562l-57.62 99.8 28.166-7.547c3.732-1.002 7.572 1.215 8.573 4.95 1 3.734-1.216 7.572-4.95 8.573l-44.489 11.921c-.606.162-1.216.24-1.815.24-3.091 0-5.92-2.062-6.758-5.19l-11.921-44.489c-1-3.734 1.216-7.572 4.95-8.573 3.732-1.003 7.573 1.214 8.574 4.949z"/></svg>