<svg clip-rule="evenodd" fill-rule="evenodd" height="43.349mm" image-rendering="optimizeQuality" shape-rendering="geometricPrecision" text-rendering="geometricPrecision" viewBox="0 0 43.3492 43.3492" width="43.349mm" xmlns="http://www.w3.org/2000/svg"><g id="Layer_x0020_1"><g id="_224670368"><g><g><g><path id="_224670968" d="m40.5826 30.2263h-37.816c-.2819 0-.5075-.2291-.5075-.5075v-17.6744c0-2.6256 2.1357-4.7578 4.7578-4.7578h29.3118c2.6256 0 4.7578 2.1357 4.7578 4.7578v17.6779c.0036.2784-.222.504-.5039.504zm-37.3084-1.015h36.8009v-17.1669c0-2.0653-1.6811-3.7428-3.7428-3.7428h-29.3153c-2.0653 0-3.7428 1.6811-3.7428 3.7428v17.1669z"/></g><g><path id="_224670920" d="m39.9024 36.0626h-36.4556c-1.889 0-3.4256-1.5366-3.4256-3.4256v-2.9181c0-.2784.2256-.5075.5075-.5075l42.2918-.0001c.2784 0 .5075.2291.5075.5075v2.9181c0 1.8891-1.5366 3.4257-3.4256 3.4257zm-38.8662-5.8363v2.4106c0 1.3287 1.082 2.4071 2.4106 2.4071h36.4591c1.3287 0 2.4071-1.082 2.4071-2.4071v-2.4106z"/></g></g><g><g><path id="_224671424" d="m24.9451 22.6102h-6.5375c-.2819 0-.5075-.2291-.5075-.5075 0-.2819.2256-.5075.5075-.5075h6.5375c.2784 0 .5075.2256.5075.5075 0 .282-.2291.5075-.5075.5075z"/></g><g><path id="_224670824" d="m13.0506 28.1364c-.9692 0-1.7551-.7894-1.7551-1.7551v-15.2532c0-.9692.7859-1.7551 1.7551-1.7551h17.2515c.9692 0 1.7551.7859 1.7551 1.7551v15.2532c0 .9692-.7859 1.7551-1.7551 1.7551zm0-17.7484c-.4088 0-.7401.3313-.7401.7401v15.2532c0 .4088.3313.7401.7401.7401h17.2515c.4088 0 .7401-.3313.7401-.7401v-15.2497c0-.4088-.3313-.7401-.7401-.7401h-17.2515z"/></g><g><path id="_224671232" d="m26.3901 25.0314h-9.431c-.7894 0-1.4309-.6414-1.4309-1.4309v-2.9956c0-.7894.6414-1.4309 1.4309-1.4309l9.4275.0001c.7894 0 1.4309.6414 1.4309 1.4309v2.9956c.0035.7894-.6415 1.4308-1.4274 1.4308zm-9.431-4.8423c-.2291 0-.4159.1868-.4159.4159v2.9956c0 .2291.1868.4159.4159.4159l9.4275-.0001c.2291 0 .4159-.1868.4159-.4159v-2.9956c0-.2291-.1868-.4159-.4159-.4159z"/></g><g><path id="_224669960" d="m24.3107 16.7987c-.1269 0-.2538-.0493-.3524-.141l-2.2838-2.1851-2.2837 2.1851c-.148.141-.363.1797-.5498.0987-.1868-.0811-.3066-.2643-.3066-.4652l.0001-6.4107c0-.2819.2256-.5075.5075-.5075h5.2687c.2784 0 .5075.2256.5075.5075v6.4072c0 .2044-.1198.3877-.3101.4652-.0634.0317-.1304.0458-.1974.0458zm-2.6361-3.5384c.1269 0 .2538.0458.3524.141l1.7763 1.6987-.0001-4.712h-4.2537v4.712l1.7763-1.6987c.0951-.0952.2219-.141.3488-.141z"/></g></g></g></g></g></svg>