<svg id="Layer_1" viewBox="0 0 128 128" fill="#fff" xmlns="http://www.w3.org/2000/svg" data-name="Layer 1">
    <circle cx="98.566" cy="42.038" r="28.436"/>
    <path
        d="m93.841 81.12283a38.52788 38.52788 0 0 1 -20.63552 18.7605 7.57073 7.57073 0 0 0 -4.94557 7.0352v.00007a7.49964 7.49964 0 0 0 9.1112 7.30568 62.61053 62.61053 0 0 0 46.3054-41.89464 39.18623 39.18623 0 0 1 -25.11091 9.07749 39.71422 39.71422 0 0 1 -4.7246-.2843z" />
    <circle cx="31.305" cy="42.038" r="28.436" />
    <path
        d="m26.57992 81.12283a38.52784 38.52784 0 0 1 -20.63552 18.7605 7.57073 7.57073 0 0 0 -4.94557 7.0352v.00007a7.49965 7.49965 0 0 0 9.11117 7.30568 62.61053 62.61053 0 0 0 46.30543-41.89464 39.18623 39.18623 0 0 1 -25.11089 9.07749 39.71422 39.71422 0 0 1 -4.72462-.2843z" />
</svg>